<svg width="1224" height="155" xmlns="http://www.w3.org/2000/svg" version="1.1">

 <g>
  <title _mstHash="489" _mstTextHash="48906">Capa 1</title>
  <path id="svg_1" fill="#ffa400" d="m0,59l29.2,-5.8c29.1,-5.9 87.5,-17.5 145.8,-30.5c58.3,-13 116.7,-27.4 175,-16.7c58.3,10.7 116.7,46.3 174.8,51.8c58.2,5.5 116.2,-19.1 174.4,-22.3c58.1,-3.2 116.5,15.2 174.8,23.2c58.3,8 116.7,5.6 175,-5.9c58.3,-11.5 116.7,-32.1 145.8,-42.5l29.2,-10.3l0,155l-29.2,0c-29.1,0 -87.5,0 -145.8,0c-58.3,0 -116.7,0 -175,0c-58.3,0 -116.7,0 -174.8,0c-58.2,0 -116.2,0 -174.4,0c-58.1,0 -116.5,0 -174.8,0c-58.3,0 -116.7,0 -175,0c-58.3,0 -116.7,0 -145.8,0l-29.2,0l0,-96z"/>
  <path id="svg_2" fill="#c87402" d="m0,32l29.2,13c29.1,13 87.5,39 145.8,39.2c58.3,0.1 116.7,-25.5 175,-39.4c58.3,-13.8 116.7,-15.8 174.8,-4.6c58.2,11.1 116.2,35.5 174.4,49.3c58.1,13.8 116.5,17.2 174.8,12.5c58.3,-4.7 116.7,-17.3 175,-17.5c58.3,-0.2 116.7,12.2 145.8,18.3l29.2,6.2l0,46l-29.2,0c-29.1,0 -87.5,0 -145.8,0c-58.3,0 -116.7,0 -175,0c-58.3,0 -116.7,0 -174.8,0c-58.2,0 -116.2,0 -174.4,0c-58.1,0 -116.5,0 -174.8,0c-58.3,0 -116.7,0 -175,0c-58.3,0 -116.7,0 -145.8,0l-29.2,0l0,-123z"/>
  <path id="svg_3" fill="#904900" d="m0,103l29.2,6.7c29.1,6.6 87.5,20 145.8,23.5c58.3,3.5 116.7,-2.9 175,-6.4c58.3,-3.5 116.7,-4.1 174.8,-3.6c58.2,0.5 116.2,2.1 174.4,4.8c58.1,2.7 116.5,6.3 174.8,7.7c58.3,1.3 116.7,0.3 175,-4.2c58.3,-4.5 116.7,-12.5 145.8,-16.5l29.2,-4l0,44l-29.2,0c-29.1,0 -87.5,0 -145.8,0c-58.3,0 -116.7,0 -175,0c-58.3,0 -116.7,0 -174.8,0c-58.2,0 -116.2,0 -174.4,0c-58.1,0 -116.5,0 -174.8,0c-58.3,0 -116.7,0 -175,0c-58.3,0 -116.7,0 -145.8,0l-29.2,0l0,-52z"/>
 </g>
</svg>