<?xml version="1.0" encoding="UTF-8"?>
<svg id="Capa_2" data-name="Capa 2" xmlns="http://www.w3.org/2000/svg" viewBox="0 0 503.76 441.03">
  <defs>
    <style>
      .cls-1 {
        fill: #f4a01e;
      }

      .cls-2 {
        fill: none;
        stroke: #f7b21e;
        stroke-width: 2px;
      }

      .cls-3 {
        fill: #fac41d;
      }

      .cls-4 {
        fill: #f8fafb;
      }
    </style>
  </defs>
  <g id="Capa_1-2" data-name="Capa 1">
    <path d="m20.92,319.95c-9.09-3.19-16.51-11.26-19.38-20.33-1.01-3.2-1.52-8.69-1.52-16.47C0,217.95,0,152.74.02,87.53c0-14.57,8.87-27.33,22.94-31.55,3.16-.95,8.28-1.42,15.35-1.43,38.44-.03,76.75-.03,114.92,0,.65,0,1.27-.26,1.72-.72C177.74,30.52,210.48,3.48,244.42.32c40.58-3.77,77.8,26.62,104.51,53.64.36.36.86.57,1.37.57,37.76,0,75.58,0,113.47,0,8.29,0,14.06.49,17.31,1.49,10.31,3.17,18.74,11.98,21.54,22.49.75,2.79,1.12,7.38,1.12,13.78,0,64.91.01,129.82.02,194.74,0,16.06-7.1,27.13-21.3,33.21-.3.13-.45.36-.45.69-.02,26.59-.02,53.2-.01,79.81,0,8.4-.48,14.22-1.46,17.45-3.09,10.19-11.69,18.65-22.02,21.62-2.83.81-7.26,1.21-13.29,1.21-127.98.01-255.96.02-383.94.01-8.01,0-13.65-.51-16.92-1.54-10.03-3.12-18.35-11.54-21.35-21.72-.83-2.8-1.24-7.05-1.25-12.74-.03-27.94-.03-55.91,0-83.91,0-.53-.34-1-.84-1.17Z"/>
    <g>
      <path class="cls-2" d="m423.5,69.57c-.19,8.93-.68,16.75-1.49,23.46-6.38,53.22-38.87,96.4-83.79,123.99-53,32.55-116.56,46.64-177.73,52.64-48.31,4.75-96.71,5.87-145.2,3.37" vector-effect="non-scaling-stroke"/>
      <path class="cls-2" d="m418,322.32c-.28,1.79-.74,3.31-1.38,4.58-12.78,25.23-40.07,41.29-66.31,50.97-44.31,16.33-91.36,23.34-138,26.69-40.4,2.91-80.99,4.01-121.48,2.78-17.92-.55-35.86-.92-53.82-1.12" vector-effect="non-scaling-stroke"/>
    </g>
    <path class="cls-4" d="m326.95,54.02c.11.12.11.3,0,.41-.05.05-.12.08-.19.08l-150.04-.05c-.1,0-.19-.08-.19-.19,0-.05.02-.11.06-.14,14.14-13.3,30.29-25.9,48.33-33.35,24.53-10.13,45.72-6.17,67.57,6.89,12.16,7.25,23.65,16.04,34.47,26.35Z"/>
    <path class="cls-3" d="m423.5,69.57c-.19,8.93-.68,16.75-1.49,23.46-6.38,53.22-38.87,96.4-83.79,123.99-53,32.55-116.56,46.64-177.73,52.64-48.31,4.75-96.71,5.87-145.2,3.37-.05-51.49-.06-102.99-.04-154.49,0-5.91-.34-19.32-.15-29,.24-12.66,5.73-20,19.65-20,100.5,0,201,0,301.5-.02.39,0,.66.06.81.17,28.81-.18,57.63-.22,86.44-.12Z"/>
    <path class="cls-1" d="m423.5,69.57c15.31-.11,30.61-.09,45.9.07,8.08.08,14.62,3.09,17.66,10.64.97,2.41,1.45,6.47,1.45,12.2-.01,63.69-.01,127.39,0,191.08,0,5.97-.5,10.21-1.49,12.74-3.78,9.55-11.75,10.73-21.81,10.73-54.39,0-108.79,0-163.19-.01-.36,0-.54-.18-.53-.54.14-13.16,1.92-29.85-17.06-29.91-34.16-.1-55.97-.11-65.43-.02-8.05.08-13.31,3.52-15.78,10.31-1.93,5.31-.84,13.57-1.05,19.58-.01.39-.22.59-.61.59H38.27c-5.77,0-9.88-.48-12.34-1.45-13.55-5.32-10.71-21.1-10.64-32.55,48.49,2.5,96.89,1.38,145.2-3.37,61.17-6,124.73-20.09,177.73-52.64,44.92-27.59,77.41-70.77,83.79-123.99.81-6.71,1.3-14.53,1.49-23.46Z"/>
    <rect class="cls-4" x="34.58" y="102.13" width="41.66" height="11.38" rx="5.52" ry="5.52"/>
    <rect class="cls-4" x="95.77" y="102.19" width="34.08" height="11.3" rx="5.44" ry="5.44" transform="translate(-.19 .2) rotate(-.1)"/>
    <rect class="cls-4" x="217.5" y="291.72" width="68.74" height="45.68" rx=".67" ry=".67"/>
    <path class="cls-3" d="m418,322.32c-.28,1.79-.74,3.31-1.38,4.58-12.78,25.23-40.07,41.29-66.31,50.97-44.31,16.33-91.36,23.34-138,26.69-40.4,2.91-80.99,4.01-121.48,2.78-17.92-.55-35.86-.92-53.82-1.12v-83.45c.01-.33.17-.49.5-.49h164.26c.25,0,.46.21.46.46h0c.12,14.08-2.12,29.77,17.19,29.78,21.49.01,42.98.02,64.47.01,19.29,0,17.82-15.41,17.59-29.69,0-.36.17-.54.54-.54l115.98.02Z"/>
    <path class="cls-1" d="m418,322.32h48.23c.35-.01.52.16.52.51,0,27.29,0,54.57.03,81.86,0,13.19-5.44,21.3-20.1,21.31-129.36.1-258.74.17-388.11.02-13.1-.02-21.85-5.29-21.56-19.8,17.96.2,35.9.57,53.82,1.12,40.49,1.23,81.08.13,121.48-2.78,46.64-3.35,93.69-10.36,138-26.69,26.24-9.68,53.53-25.74,66.31-50.97.64-1.27,1.1-2.79,1.38-4.58Z"/>
  </g>
</svg>