<svg fill="#5a5a5a" xmlns="http://www.w3.org/2000/svg" viewBox="0 0 669 669">
    <path d="m0,0h669v669H0V0Zm394.36,266.27c0-32.78-26.58-59.36-59.36-59.36-32.78,0-59.36,26.58-59.36,59.36s26.58,59.36,59.36,59.36h0c32.78,0,59.36-26.58,59.36-59.36h0Zm-152.67,177.99l186.62.32c4.72.01,8.56-3.81,8.57-8.53h0v-.47c.09-51.24-41.94-92.86-93.87-92.95h0l-15.64-.02c-51.93-.09-94.11,41.37-94.2,92.61v.47c-.01,4.72,3.81,8.56,8.53,8.57h0Z"/>
    <circle cx="335" cy="266.28" r="42.39"/>
    <path d="m352.63,360.23c35.26,4.24,62.23,31.72,66.74,66.86.02.2-.12.39-.32.41-.01,0-.03,0-.04,0h-168c-.31,0-.44-.15-.4-.46,4.6-33.55,29.07-60.39,62.53-66.21,3.95-.69,9.58-1.04,16.89-1.07,7.49-.03,15.86-.34,22.6.47Z"/>
</svg>